<svg xmlns="http://www.w3.org/2000/svg" viewBox="0 0 64 80" x="0px" y="0px"><g><path d="M50,20H18V44H50ZM41.716,31.022l-3.157,3.236.747,4.581a1,1,0,0,1-1.471,1.036l-3.854-2.13-3.854,2.13a1,1,0,0,1-1.47-1.036l.747-4.581-3.157-3.236a1,1,0,0,1,.565-1.686l4.322-.661,1.942-4.137a1,1,0,0,1,1.811,0l1.942,4.137,4.322.661a1,1,0,0,1,.565,1.686Z"/><path d="M35.245,30.008l-1.264-2.692-1.263,2.692a1,1,0,0,1-.755.563l-2.925.448,2.15,2.2a1,1,0,0,1,.271.859l-.5,3.047,2.536-1.4a1,1,0,0,1,.967,0L37,37.129l-.5-3.047a1,1,0,0,1,.271-.859l2.15-2.2L36,30.571A1,1,0,0,1,35.245,30.008Z"/><path d="M55.083,16H12v5H10V16H4V27.1a5,5,0,0,1,0,9.8V48h6V43h2v5H60V20.917A6.017,6.017,0,0,1,55.083,16ZM12,41H10V33h2Zm0-10H10V23h2ZM52,46H16V18H52Z"/></g><text x="0" y="79" fill="#000000" font-size="5px" font-weight="bold" font-family="'Helvetica Neue', Helvetica, Arial-Unicode, Arial, Sans-serif">Created by Smalllike</text><text x="0" y="84" fill="#000000" font-size="5px" font-weight="bold" font-family="'Helvetica Neue', Helvetica, Arial-Unicode, Arial, Sans-serif">from the Noun Project</text></svg>